<svg xmlns="http://www.w3.org/2000/svg" viewBox="0 0 128 128">
  <defs>
    <linearGradient id="g" x1="0" x2="1" y1="0" y2="1">
      <stop offset="0%" stop-color="#ef4444"/>
      <stop offset="100%" stop-color="#1e3a8a"/>
    </linearGradient>
  </defs>
  <rect width="128" height="128" rx="28" fill="url(#g)"/>
  <path d="M26 38c0-10 8-18 18-18h40c10 0 18 8 18 18v26c0 10-8 18-18 18H60l-14 12c-2 2-5 .4-5-2.2V82h-7c-10 0-18-8-18-18V38z" fill="#fff"/>
  <path d="M52 78h28c12 0 22 10 22 22v2c0 3-3.4 4.6-5.7 2.8L84 96H62c-12 0-22-10-22-22v-3c0-1.7 1.4-3 3-3h9v10z" fill="#dbe7ff" opacity=".92"/>
  <circle cx="50" cy="51" r="4.5" fill="#1e3a8a"/>
  <circle cx="64" cy="51" r="4.5" fill="#1e3a8a"/>
  <circle cx="78" cy="51" r="4.5" fill="#1e3a8a"/>
</svg>
