<svg xmlns="http://www.w3.org/2000/svg" viewBox="0 0 128 128">
  <defs>
    <linearGradient id="g" x1="0" x2="1" y1="0" y2="1">
      <stop offset="0%" stop-color="#ef4444"/>
      <stop offset="100%" stop-color="#1e3a8a"/>
    </linearGradient>
  </defs>
  <rect width="128" height="128" rx="28" fill="url(#g)"/>
  <circle cx="43" cy="35" r="9" fill="#fff" opacity="0.95"/>
  <circle cx="58" cy="28" r="8" fill="#fff" opacity="0.95"/>
  <circle cx="75" cy="25" r="7" fill="#fff" opacity="0.95"/>
  <circle cx="90" cy="29" r="6" fill="#fff" opacity="0.95"/>
  <path d="M34 50c0-11 8-18 18-18h20c15 0 27 12 27 27 0 18-13 30-33 30H54c-12 0-20-7-20-18V50z" fill="#fff"/>
  <path d="M53 53h17c9 0 15 6 15 15s-6 15-15 15H53V53z" fill="#1e3a8a" opacity="0.9"/>
</svg>
