<svg xmlns="http://www.w3.org/2000/svg" viewBox="0 0 512 512">
  <defs>
    <linearGradient id="g" x1="0" x2="1" y1="0" y2="1">
      <stop offset="0%" stop-color="#ef4444"/>
      <stop offset="100%" stop-color="#1e3a8a"/>
    </linearGradient>
  </defs>
  <rect width="512" height="512" rx="112" fill="url(#g)"/>
  <circle cx="176" cy="140" r="34" fill="#fff" opacity="0.95"/>
  <circle cx="234" cy="111" r="30" fill="#fff" opacity="0.95"/>
  <circle cx="299" cy="99" r="26" fill="#fff" opacity="0.95"/>
  <circle cx="356" cy="114" r="22" fill="#fff" opacity="0.95"/>
  <path d="M138 214c0-42 30-70 69-70h84c59 0 105 46 105 105 0 71-53 121-128 121h-47c-47 0-83-29-83-74V214z" fill="#fff"/>
  <path d="M210 227h72c38 0 63 25 63 63s-25 63-63 63h-72V227z" fill="#1e3a8a" opacity="0.9"/>
</svg>
