<svg xmlns="http://www.w3.org/2000/svg" viewBox="0 0 512 512">
  <defs>
    <linearGradient id="g" x1="0" x2="1" y1="0" y2="1">
      <stop offset="0%" stop-color="#ef4444"/>
      <stop offset="100%" stop-color="#1e3a8a"/>
    </linearGradient>
  </defs>
  <rect width="512" height="512" rx="112" fill="url(#g)"/>
  <path d="M104 150c0-40 32-72 72-72h164c40 0 72 32 72 72v108c0 40-32 72-72 72H244l-63 53c-9 8-23 1-23-10v-43h-54c-40 0-72-32-72-72V150z" fill="#fff"/>
  <path d="M218 322h118c50 0 90 40 90 90v9c0 11-12 17-21 10l-49-39h-97c-50 0-90-40-90-90v-11c0-7 5-12 12-12h37v43z" fill="#dbe7ff" opacity=".92"/>
  <circle cx="210" cy="205" r="18" fill="#1e3a8a"/>
  <circle cx="258" cy="205" r="18" fill="#1e3a8a"/>
  <circle cx="306" cy="205" r="18" fill="#1e3a8a"/>
</svg>
